<?xml version="1.0" encoding="UTF-8" standalone="no"?><!-- Generator: Gravit.io --><svg xmlns="http://www.w3.org/2000/svg" xmlns:xlink="http://www.w3.org/1999/xlink" style="isolation:isolate" viewBox="0 0 150 150" width="150pt" height="150pt"><defs><clipPath id="_clipPath_i4ajeQrYjAFJwtb2GM9MSv2VcVDizAP3"><rect width="150" height="150"/></clipPath></defs><g clip-path="url(#_clipPath_i4ajeQrYjAFJwtb2GM9MSv2VcVDizAP3)"><g opacity="0.1"><circle vector-effect="non-scaling-stroke" cx="75" cy="75" r="75" fill="rgb(131,90,253)"/></g><path d=" M 9 29.723 L 9 62.784 L 9 65.145 C 9 67.753 11.115 69.868 13.723 69.868 L 44.422 69.868 L 57.036 81.512 C 57.883 82.293 59.233 81.524 58.992 80.397 L 56.23 67.507 L 64.495 67.507 C 67.103 67.507 69.218 65.392 69.218 62.784 L 69.218 29.723 C 69.218 27.115 67.103 25 64.495 25 L 13.723 25 C 11.115 25 9 27.115 9 29.723 Z " fill="rgb(8,174,234)"/><path d=" M 149.218 57.723 L 149.218 90.784 L 149.218 93.145 C 149.218 95.753 147.103 97.868 144.495 97.868 L 113.795 97.868 L 101.181 109.512 C 100.335 110.293 98.984 109.524 99.226 108.397 L 101.988 95.507 L 93.723 95.507 C 91.115 95.507 89 93.392 89 90.784 L 89 57.723 C 89 55.115 91.115 53 93.723 53 L 144.495 53 C 147.103 53 149.218 55.115 149.218 57.723 Z " fill="rgb(42,245,152)"/><path d=" M 42 101.41 L 42 118.281 L 42 119.486 C 42 120.817 43.089 121.896 44.431 121.896 L 60.235 121.896 L 66.729 127.838 C 67.165 128.237 67.86 127.844 67.736 127.269 L 66.314 120.691 L 70.569 120.691 C 71.911 120.691 73 119.612 73 118.281 L 73 101.41 C 73 100.079 71.911 99 70.569 99 L 44.431 99 C 43.089 99 42 100.079 42 101.41 Z " fill="rgb(42,245,152)"/><circle vector-effect="non-scaling-stroke" cx="25.5" cy="46.5" r="3.5" fill="rgb(254,254,254)"/><circle vector-effect="non-scaling-stroke" cx="38.5" cy="46.5" r="3.5" fill="rgb(254,254,254)"/><circle vector-effect="non-scaling-stroke" cx="51.5" cy="46.5" r="3.5" fill="rgb(254,254,254)"/></g></svg>