<?xml version="1.0" encoding="UTF-8" standalone="no"?><!-- Generator: Gravit.io --><svg xmlns="http://www.w3.org/2000/svg" xmlns:xlink="http://www.w3.org/1999/xlink" style="isolation:isolate" viewBox="0 0 313 404" width="313pt" height="404pt"><defs><clipPath id="_clipPath_keJGiHFgeDUDkd0tGoTSI24571i5XEGK"><rect width="313" height="404"/></clipPath></defs><g clip-path="url(#_clipPath_keJGiHFgeDUDkd0tGoTSI24571i5XEGK)"><g opacity="0.5"><linearGradient id="_lgradient_0" x1="-0.5440578802447191" y1="-0.17793161527790968" x2="0.4766959452723498" y2="0.5664784861871992" gradientTransform="matrix(108.19,0,0,110.456,92.479,117.43)" gradientUnits="userSpaceOnUse"><stop offset="0%" stop-opacity="1" style="stop-color:rgb(255,255,255)"/><stop offset="100%" stop-opacity="0" style="stop-color:rgb(255,255,255)"/></linearGradient><path d=" M 146.574 123.837 C 173.957 107.856 196.594 122.792 200.599 157.279 C 201.295 163.244 196.768 171.126 191.239 174.348 L 101.91 226.514 C 96.381 229.736 91.854 227.124 92.55 220.331 C 96.555 181.272 119.236 139.818 146.574 123.837 Z " fill="url(#_lgradient_0)"/></g><g opacity="0.5"><linearGradient id="_lgradient_1" x1="-0.4192441595626992" y1="0.05866086908231821" x2="1.2023801453975174" y2="1.2412695201449238" gradientTransform="matrix(61.468,0,0,93.399,116.058,14.412)" gradientUnits="userSpaceOnUse"><stop offset="0%" stop-opacity="1" style="stop-color:rgb(255,255,255)"/><stop offset="100%" stop-opacity="0" style="stop-color:rgb(255,255,255)"/></linearGradient><path d=" M 116.058 79.073 C 116.058 102.892 129.814 114.126 146.792 104.198 C 163.77 94.27 177.526 66.968 177.526 43.149 C 177.526 19.331 163.77 8.096 146.792 18.024 C 129.814 27.953 116.058 55.255 116.058 79.073 Z " fill="url(#_lgradient_1)"/></g><g opacity="0.07"><linearGradient id="_lgradient_2" x1="-0.544130763179214" y1="-0.17797293006437653" x2="0.4766220484825465" y2="0.5664427802698198" gradientTransform="matrix(108.19,0,0,110.456,74.892,103.147)" gradientUnits="userSpaceOnUse"><stop offset="0%" stop-opacity="1" style="stop-color:rgb(255,255,255)"/><stop offset="100%" stop-opacity="0" style="stop-color:rgb(255,255,255)"/></linearGradient><path d=" M 128.987 109.554 C 156.369 93.574 179.006 108.509 183.011 142.996 C 183.708 148.962 179.181 156.843 173.652 160.066 L 84.323 212.232 C 78.794 215.454 74.267 212.841 74.963 206.048 C 78.968 166.989 101.605 125.535 128.987 109.554 Z " fill="url(#_lgradient_2)"/></g><g opacity="0.07"><linearGradient id="_lgradient_3" x1="-0.41936549201943785" y1="0.05860310717783511" x2="1.2022479630333867" y2="1.2412115980155123" gradientTransform="matrix(61.468,0,0,93.399,98.471,0.129)" gradientUnits="userSpaceOnUse"><stop offset="0%" stop-opacity="1" style="stop-color:rgb(255,255,255)"/><stop offset="100%" stop-opacity="0" style="stop-color:rgb(255,255,255)"/></linearGradient><path d=" M 98.471 64.791 C 98.471 88.61 112.227 99.844 129.205 89.916 C 146.183 79.988 159.939 52.686 159.939 28.867 C 159.939 5.048 146.183 -6.186 129.205 3.742 C 112.227 13.67 98.471 40.972 98.471 64.791 Z " fill="url(#_lgradient_3)"/></g><g opacity="0.2"><linearGradient id="_lgradient_4" x1="0.3872967243206906" y1="0.2949789143539916" x2="0.6039836724308916" y2="0.6702952166728875" gradientTransform="matrix(77.358,0,0,81.721,39.31,202.663)" gradientUnits="userSpaceOnUse"><stop offset="0%" stop-opacity="1" style="stop-color:rgb(255,255,255)"/><stop offset="100%" stop-opacity="0" style="stop-color:rgb(255,255,255)"/></linearGradient><path d=" M 39.31 246.651 C 39.31 245.049 40.164 243.569 41.552 242.768 L 109.941 203.271 C 112.93 201.544 116.668 203.702 116.668 207.154 L 116.668 239.708 L 39.31 284.384 L 39.31 246.651 L 39.31 246.651 Z " fill="url(#_lgradient_4)"/></g><path d=" M 100.952 221.985 C 100.952 225.295 102.911 226.862 105.349 225.469 C 107.787 224.076 109.746 220.244 109.746 216.934 C 109.746 213.625 107.787 212.057 105.349 213.451 C 102.911 214.844 100.952 218.676 100.952 221.985 Z " fill="rgb(42,245,152)"/><g opacity="0.15"><path d=" M 96.86 220.548 L 73.614 234.004 L 73.614 238.837 L 96.904 225.382 L 96.86 220.548 L 96.86 220.548 Z " fill="rgb(254,254,254)"/></g><g opacity="0.15"><path d=" M 96.86 230.259 L 47.32 258.867 L 47.32 263.788 L 96.86 235.179 L 96.86 230.259 L 96.86 230.259 Z " fill="rgb(254,254,254)"/></g><g opacity="0.2"><linearGradient id="_lgradient_5" x1="0.3872902608650688" y1="0.29455610341693905" x2="0.6039755741902437" y2="0.6698609744543449" gradientTransform="matrix(77.358,0,0,81.724,196.463,156.111)" gradientUnits="userSpaceOnUse"><stop offset="0%" stop-opacity="1" style="stop-color:rgb(255,255,255)"/><stop offset="100%" stop-opacity="0" style="stop-color:rgb(255,255,255)"/></linearGradient><path d=" M 196.463 200.06 C 196.463 198.457 197.318 196.977 198.706 196.176 L 267.095 156.717 C 270.085 154.993 273.821 157.15 273.821 160.601 L 273.821 193.159 L 196.463 237.835 L 196.463 200.06 L 196.463 200.06 Z " fill="url(#_lgradient_5)"/></g><path d=" M 258.105 175.393 C 258.105 178.703 260.064 180.27 262.502 178.877 C 264.94 177.483 266.899 173.651 266.899 170.342 C 266.899 167.033 264.94 165.465 262.502 166.859 C 260.064 168.252 258.105 172.084 258.105 175.393 Z " fill="rgb(42,245,152)"/><g opacity="0.15"><path d=" M 254.144 174.174 L 240.126 182.273 L 240.126 187.194 L 254.144 179.094 L 254.144 174.174 L 254.144 174.174 Z " fill="rgb(254,254,254)"/></g><g opacity="0.15"><path d=" M 254.013 183.884 L 204.473 212.493 L 204.473 217.413 L 254.013 188.805 L 254.013 183.884 L 254.013 183.884 Z " fill="rgb(254,254,254)"/></g><g opacity="0.3"><linearGradient id="_lgradient_6" x1="0.5706189822650788" y1="-0.005014330821195179" x2="0.4503086179825415" y2="0.9705443900099956" gradientTransform="matrix(146.614,0,0,157.791,0,245.338)" gradientUnits="userSpaceOnUse"><stop offset="0%" stop-opacity="1" style="stop-color:rgb(255,255,255)"/><stop offset="100%" stop-opacity="0" style="stop-color:rgb(255,255,255)"/></linearGradient><path d=" M 146.614 249.832 C 146.616 246.378 142.878 244.219 139.887 245.946 L 2.284 325.416 C 0.897 326.216 0.043 327.695 0.042 329.296 L 0 403.129 L 133.645 325.969 L 144.617 329.553 C 145.583 329.869 146.575 329.149 146.575 328.133 L 146.614 249.832 L 146.614 249.832 Z " fill="url(#_lgradient_6)"/></g><path d=" M 116.842 284.863 C 116.842 291.177 120.542 294.095 125.156 291.438 C 129.771 288.782 133.471 281.51 133.471 275.24 C 133.471 268.926 129.771 266.009 125.156 268.665 C 120.586 271.321 116.842 278.593 116.842 284.863 Z " fill="rgb(42,245,152)"/><g opacity="0.15"><path d=" M 108.919 282.425 L 76.792 300.975 L 76.792 307.68 L 108.919 289.131 L 108.919 282.425 L 108.919 282.425 Z " fill="rgb(254,254,254)"/></g><g opacity="0.15"><path d=" M 108.919 295.88 L 12.973 351.268 L 12.973 357.974 L 108.919 302.586 L 108.919 295.88 L 108.919 295.88 Z " fill="rgb(254,254,254)"/></g><g opacity="0.15"><path d=" M 108.919 309.335 L 33.912 352.662 L 33.912 359.367 L 108.919 316.041 L 108.919 309.335 L 108.919 309.335 Z " fill="rgb(254,254,254)"/></g><g opacity="0.3"><linearGradient id="_lgradient_7" x1="0.2182836326917359" y1="0.3054530762292791" x2="0.7125407402861392" y2="0.6923467234058824" gradientTransform="matrix(146.612,0,0,166.069,166.384,182.677)" gradientUnits="userSpaceOnUse"><stop offset="0%" stop-opacity="1" style="stop-color:rgb(255,255,255)"/><stop offset="100%" stop-opacity="0" style="stop-color:rgb(255,255,255)"/></linearGradient><path d=" M 166.424 266.593 C 166.425 264.992 167.28 263.512 168.667 262.712 L 306.27 183.284 C 309.26 181.558 312.997 183.717 312.996 187.17 L 312.956 255.819 L 179.311 332.979 L 169.118 348.084 C 168.293 349.307 166.384 348.722 166.384 347.248 L 166.424 266.593 L 166.424 266.593 Z " fill="url(#_lgradient_7)"/></g><path d=" M 196.202 272.41 C 196.202 278.723 192.458 285.952 187.887 288.608 C 183.273 291.264 179.572 288.303 179.572 281.989 C 179.572 275.675 183.316 268.447 187.887 265.791 C 192.458 263.178 196.202 266.139 196.202 272.41 Z " fill="rgb(42,245,152)"/><g opacity="0.15"><path d=" M 204.125 260.87 L 236.252 242.321 L 236.252 249.026 L 204.125 267.576 L 204.125 260.87 L 204.125 260.87 Z " fill="rgb(254,254,254)"/></g><g opacity="0.15"><path d=" M 204.081 274.282 L 300.027 218.894 L 300.027 225.6 L 204.125 280.988 L 204.081 274.282 L 204.081 274.282 Z " fill="rgb(254,254,254)"/></g><g opacity="0.15"><path d=" M 204.081 287.737 L 279.088 244.411 L 279.088 251.116 L 204.081 294.443 L 204.081 287.737 L 204.081 287.737 Z " fill="rgb(254,254,254)"/></g><g opacity="0.2"><linearGradient id="_lgradient_8" x1="0.2505426867804257" y1="0.35508083581838346" x2="0.8187210660380939" y2="0.8033777392577692" gradientTransform="matrix(36.393,0,0,49.62,233.771,310.943)" gradientUnits="userSpaceOnUse"><stop offset="0%" stop-opacity="1" style="stop-color:rgb(255,255,255)"/><stop offset="100%" stop-opacity="0" style="stop-color:rgb(255,255,255)"/></linearGradient><path d=" M 251.967 311.599 C 249.355 313.08 247.266 316.738 247.266 319.786 L 247.266 333.067 L 238.472 338.118 C 235.86 339.598 233.771 343.256 233.771 346.26 C 233.771 349.265 235.86 350.484 238.472 349.004 L 247.266 343.909 L 247.266 357.19 C 247.266 360.195 249.355 361.414 251.967 359.933 C 254.579 358.453 256.669 354.795 256.669 351.791 L 256.669 338.51 L 265.462 333.459 C 268.074 331.978 270.164 328.32 270.164 325.316 C 270.164 322.311 268.074 321.092 265.462 322.572 L 256.669 327.624 L 256.669 314.343 C 256.712 311.295 254.579 310.075 251.967 311.599 Z " fill="url(#_lgradient_8)"/></g><g opacity="0.2"><linearGradient id="_lgradient_9" x1="0.17442632561534732" y1="0.4281513671632733" x2="0.9328572297850168" y2="0.8508317731614049" gradientTransform="matrix(26.289,0,0,56.018,49.63,141.472)" gradientUnits="userSpaceOnUse"><stop offset="0%" stop-opacity="1" style="stop-color:rgb(255,255,255)"/><stop offset="100%" stop-opacity="0" style="stop-color:rgb(255,255,255)"/></linearGradient><path d=" M 62.818 141.472 L 50.716 165.247 C 49.061 168.513 49.323 171.779 51.325 172.563 C 53.328 173.347 56.288 171.3 57.942 168.034 L 58.073 167.729 L 58.073 194.117 C 58.073 197.122 60.162 198.341 62.774 196.86 C 65.386 195.336 67.476 191.722 67.476 188.718 L 67.476 162.33 L 67.606 162.461 C 69.261 163.81 72.264 162.417 74.223 159.325 C 76.226 156.234 76.487 152.663 74.833 151.313 L 62.818 141.472 L 62.818 141.472 Z " fill="url(#_lgradient_9)"/></g></g></svg>